<svg xmlns="http://www.w3.org/2000/svg" xmlns:xlink="http://www.w3.org/1999/xlink" width="40" zoomAndPan="magnify" viewBox="0 0 30 30.000001" height="40" preserveAspectRatio="xMidYMid meet" version="1.2"><defs><clipPath id="b1bb2ee1a5"><path d="M 0.484375 2.070312 L 11 2.070312 L 11 13 L 0.484375 13 Z M 0.484375 2.070312 "/></clipPath><clipPath id="a2c9d4075e"><path d="M 0.484375 18 L 11 18 L 11 28.921875 L 0.484375 28.921875 Z M 0.484375 18 "/></clipPath><clipPath id="be442ac1ba"><path d="M 19 2.070312 L 29.515625 2.070312 L 29.515625 13 L 19 13 Z M 19 2.070312 "/></clipPath><clipPath id="e4b7e55d49"><path d="M 0.484375 13 L 2 13 L 2 16 L 0.484375 16 Z M 0.484375 13 "/></clipPath><clipPath id="8474461cd4"><path d="M 0.484375 16 L 2 16 L 2 18 L 0.484375 18 Z M 0.484375 16 "/></clipPath><clipPath id="05f435415a"><path d="M 11 2.070312 L 19 2.070312 L 19 4 L 11 4 Z M 11 2.070312 "/></clipPath><clipPath id="43e891822e"><path d="M 25 13 L 29.515625 13 L 29.515625 22 L 25 22 Z M 25 13 "/></clipPath><clipPath id="464a49742a"><path d="M 23 22 L 29.515625 22 L 29.515625 28.921875 L 23 28.921875 Z M 23 22 "/></clipPath><clipPath id="8bfe2c3955"><path d="M 11 26 L 18 26 L 18 28.921875 L 11 28.921875 Z M 11 26 "/></clipPath><clipPath id="292a12b642"><path d="M 18 27 L 24 27 L 24 28.921875 L 18 28.921875 Z M 18 27 "/></clipPath></defs><g id="71fcb1679f"><g clip-rule="nonzero" clip-path="url(#b1bb2ee1a5)"><path style=" stroke:none;fill-rule:nonzero;fill:#2e2d2d;fill-opacity:1;" d="M 9.519531 11.0625 L 1.78125 11.0625 L 1.78125 3.355469 L 9.519531 3.355469 Z M 0.492188 2.070312 L 0.492188 12.347656 L 10.808594 12.347656 L 10.808594 2.070312 L 0.492188 2.070312 "/></g><path style=" stroke:none;fill-rule:nonzero;fill:#2e2d2d;fill-opacity:1;" d="M 8.21875 4.652344 L 8.21875 9.765625 L 3.082031 9.765625 L 3.082031 4.652344 L 8.21875 4.652344 "/><g clip-rule="nonzero" clip-path="url(#a2c9d4075e)"><path style=" stroke:none;fill-rule:nonzero;fill:#2e2d2d;fill-opacity:1;" d="M 9.519531 27.636719 L 1.78125 27.636719 L 1.78125 19.929688 L 9.519531 19.929688 Z M 0.492188 18.644531 L 0.492188 28.921875 L 10.808594 28.921875 L 10.808594 18.644531 L 0.492188 18.644531 "/></g><path style=" stroke:none;fill-rule:nonzero;fill:#2e2d2d;fill-opacity:1;" d="M 8.21875 21.226562 L 8.21875 26.339844 L 3.082031 26.339844 L 3.082031 21.226562 L 8.21875 21.226562 "/><g clip-rule="nonzero" clip-path="url(#be442ac1ba)"><path style=" stroke:none;fill-rule:nonzero;fill:#2e2d2d;fill-opacity:1;" d="M 28.21875 11.0625 L 20.480469 11.0625 L 20.480469 3.355469 L 28.21875 3.355469 Z M 19.191406 2.070312 L 19.191406 12.347656 L 29.507812 12.347656 L 29.507812 2.070312 L 19.191406 2.070312 "/></g><path style=" stroke:none;fill-rule:nonzero;fill:#2e2d2d;fill-opacity:1;" d="M 26.933594 4.636719 L 26.933594 9.78125 L 21.765625 9.78125 L 21.765625 4.636719 L 26.933594 4.636719 "/><g clip-rule="nonzero" clip-path="url(#e4b7e55d49)"><path style=" stroke:none;fill-rule:nonzero;fill:#2e2d2d;fill-opacity:1;" d="M 1.523438 13.503906 L 1.523438 15.414062 L 0.492188 15.414062 L 0.492188 13.503906 L 1.523438 13.503906 "/></g><g clip-rule="nonzero" clip-path="url(#8474461cd4)"><path style=" stroke:none;fill-rule:nonzero;fill:#2e2d2d;fill-opacity:1;" d="M 0.492188 16.441406 L 1.523438 16.441406 L 1.523438 17.875 L 0.492188 17.875 L 0.492188 16.441406 "/></g><g clip-rule="nonzero" clip-path="url(#05f435415a)"><path style=" stroke:none;fill-rule:nonzero;fill:#2e2d2d;fill-opacity:1;" d="M 18.289062 2.070312 L 18.289062 3.097656 L 11.582031 3.097656 L 11.582031 2.070312 L 18.289062 2.070312 "/></g><g clip-rule="nonzero" clip-path="url(#43e891822e)"><path style=" stroke:none;fill-rule:nonzero;fill:#2e2d2d;fill-opacity:1;" d="M 29.507812 21.597656 L 25.640625 21.597656 L 25.640625 20.570312 L 28.476562 20.570312 L 28.476562 13.761719 L 29.507812 13.761719 L 29.507812 21.597656 "/></g><g clip-rule="nonzero" clip-path="url(#464a49742a)"><path style=" stroke:none;fill-rule:nonzero;fill:#2e2d2d;fill-opacity:1;" d="M 29.507812 28.921875 L 25.125 28.921875 L 25.125 25.710938 L 23.1875 25.710938 L 23.1875 24.683594 L 26.15625 24.683594 L 26.15625 27.894531 L 28.476562 27.894531 L 28.476562 22.371094 L 29.507812 22.371094 L 29.507812 28.921875 "/></g><g clip-rule="nonzero" clip-path="url(#8bfe2c3955)"><path style=" stroke:none;fill-rule:nonzero;fill:#2e2d2d;fill-opacity:1;" d="M 17.386719 28.921875 L 11.96875 28.921875 L 11.96875 27.894531 L 16.355469 27.894531 L 16.355469 26.222656 L 17.386719 26.222656 L 17.386719 28.921875 "/></g><g clip-rule="nonzero" clip-path="url(#292a12b642)"><path style=" stroke:none;fill-rule:nonzero;fill:#2e2d2d;fill-opacity:1;" d="M 23.703125 28.921875 L 18.160156 28.921875 L 18.160156 27.894531 L 23.703125 27.894531 L 23.703125 28.921875 "/></g><path style=" stroke:none;fill-rule:nonzero;fill:#2e2d2d;fill-opacity:1;" d="M 16.742188 8.625 L 13.128906 8.625 L 13.128906 5.023438 L 16.742188 5.023438 Z M 12.097656 4 L 12.097656 9.648438 L 17.773438 9.648438 L 17.773438 4 L 12.097656 4 "/><path style=" stroke:none;fill-rule:nonzero;fill:#2e2d2d;fill-opacity:1;" d="M 19.0625 20.570312 L 15.453125 20.570312 L 15.453125 16.972656 L 19.0625 16.972656 Z M 14.417969 15.945312 L 14.417969 21.597656 L 20.09375 21.597656 L 20.09375 15.945312 L 14.417969 15.945312 "/><path style=" stroke:none;fill-rule:nonzero;fill:#2e2d2d;fill-opacity:1;" d="M 8.617188 17.871094 L 7.585938 17.871094 L 7.585938 14.917969 L 2.683594 14.917969 L 2.683594 13.890625 L 8.617188 13.890625 L 8.617188 17.871094 "/><path style=" stroke:none;fill-rule:nonzero;fill:#2e2d2d;fill-opacity:1;" d="M 14.808594 14.917969 L 9.777344 14.917969 L 9.777344 13.890625 L 13.773438 13.890625 L 13.773438 12.605469 L 16.742188 12.605469 L 16.742188 10.808594 L 17.773438 10.808594 L 17.773438 13.632812 L 14.808594 13.632812 L 14.808594 14.917969 "/><path style=" stroke:none;fill-rule:nonzero;fill:#2e2d2d;fill-opacity:1;" d="M 23.316406 16.460938 L 22.285156 16.460938 L 22.285156 15.6875 L 20.480469 15.6875 L 20.480469 14.660156 L 23.316406 14.660156 L 23.316406 16.460938 "/><path style=" stroke:none;fill-rule:nonzero;fill:#2e2d2d;fill-opacity:1;" d="M 23.449219 21.726562 L 22.160156 21.726562 L 22.160156 20.441406 L 23.449219 20.441406 Z M 21.125 19.414062 L 21.125 22.753906 L 24.480469 22.753906 L 24.480469 19.414062 L 21.125 19.414062 "/><path style=" stroke:none;fill-rule:nonzero;fill:#2e2d2d;fill-opacity:1;" d="M 16.007812 24.683594 L 16.007812 26.222656 L 14.632812 26.222656 L 14.632812 27.078125 L 13.085938 27.078125 L 13.085938 25.539062 L 14.460938 25.539062 L 14.460938 24.683594 L 16.007812 24.683594 "/><path style=" stroke:none;fill-rule:nonzero;fill:#2e2d2d;fill-opacity:1;" d="M 28.289062 23.859375 L 28.289062 25.65625 L 26.484375 25.65625 L 26.484375 23.910156 L 25.039062 23.910156 L 25.039062 22.367188 L 26.585938 22.367188 L 26.585938 23.859375 L 28.289062 23.859375 "/><path style=" stroke:none;fill-rule:nonzero;fill:#2e2d2d;fill-opacity:1;" d="M 6.636719 17.058594 L 6.636719 18.597656 L 5.089844 18.597656 L 5.089844 17.230469 L 3.714844 17.230469 L 3.714844 15.6875 L 5.261719 15.6875 L 5.261719 17.058594 L 6.636719 17.058594 "/><path style=" stroke:none;fill-rule:nonzero;fill:#2e2d2d;fill-opacity:1;" d="M 13.515625 10.164062 L 13.515625 11.707031 L 11.96875 11.707031 L 11.96875 10.164062 L 13.515625 10.164062 "/><path style=" stroke:none;fill-rule:nonzero;fill:#2e2d2d;fill-opacity:1;" d="M 19.792969 12.863281 L 19.792969 14.40625 L 18.25 14.40625 L 18.25 15.773438 L 16.699219 15.773438 L 16.699219 14.230469 L 18.246094 14.230469 L 18.246094 12.863281 L 19.792969 12.863281 "/><path style=" stroke:none;fill-rule:nonzero;fill:#2e2d2d;fill-opacity:1;" d="M 27.703125 13.074219 L 27.703125 14.617188 L 26.15625 14.617188 L 26.15625 13.074219 L 27.703125 13.074219 "/><path style=" stroke:none;fill-rule:nonzero;fill:#2e2d2d;fill-opacity:1;" d="M 27.574219 18.386719 L 21.640625 18.386719 L 21.640625 17.359375 L 26.542969 17.359375 L 26.542969 14.789062 L 27.574219 14.789062 L 27.574219 18.386719 "/><path style=" stroke:none;fill-rule:nonzero;fill:#2e2d2d;fill-opacity:1;" d="M 19.191406 23.011719 L 11.96875 23.011719 L 11.96875 24.039062 L 18.160156 24.039062 L 18.160156 25.066406 L 19.191406 25.066406 L 19.191406 23.011719 "/><path style=" stroke:none;fill-rule:nonzero;fill:#2e2d2d;fill-opacity:1;" d="M 22.671875 26.609375 L 18.03125 26.609375 L 18.03125 25.582031 L 21.640625 25.582031 L 21.640625 23.398438 L 22.671875 23.398438 L 22.671875 26.609375 "/><path style=" stroke:none;fill-rule:nonzero;fill:#2e2d2d;fill-opacity:1;" d="M 24.996094 16.03125 L 23.964844 16.03125 L 23.964844 13.976562 L 21.511719 13.976562 L 21.511719 12.949219 L 24.996094 12.949219 L 24.996094 16.03125 "/><path style=" stroke:none;fill-rule:nonzero;fill:#2e2d2d;fill-opacity:1;" d="M 12.742188 22.242188 L 11.710938 22.242188 L 11.710938 16.972656 L 10.164062 16.972656 L 10.164062 15.945312 L 12.742188 15.945312 L 12.742188 22.242188 "/><path style=" stroke:none;fill-rule:nonzero;fill:#2e2d2d;fill-opacity:1;" d="M 18.160156 17.871094 L 18.160156 19.671875 L 16.355469 19.671875 L 16.355469 17.871094 L 18.160156 17.871094 "/><path style=" stroke:none;fill-rule:nonzero;fill:#2e2d2d;fill-opacity:1;" d="M 15.757812 5.898438 L 15.757812 7.699219 L 13.949219 7.699219 L 13.949219 5.898438 L 15.757812 5.898438 "/></g></svg>