<svg xmlns="http://www.w3.org/2000/svg" xmlns:xlink="http://www.w3.org/1999/xlink" width="900" zoomAndPan="magnify" viewBox="0 0 675 82.499998" height="110" preserveAspectRatio="xMidYMid meet" version="1.0"><defs><g/><clipPath id="54adc706a1"><path d="M 6.363281 0 L 38 0 L 38 32 L 6.363281 32 Z M 6.363281 0 " clip-rule="nonzero"/></clipPath><clipPath id="6b34ca54e0"><path d="M 6.363281 50 L 38 50 L 38 82 L 6.363281 82 Z M 6.363281 50 " clip-rule="nonzero"/></clipPath><clipPath id="52f2d1c5d3"><path d="M 63 0 L 94.332031 0 L 94.332031 32 L 63 32 Z M 63 0 " clip-rule="nonzero"/></clipPath><clipPath id="a7669a7091"><path d="M 6.363281 34 L 10 34 L 10 41 L 6.363281 41 Z M 6.363281 34 " clip-rule="nonzero"/></clipPath><clipPath id="6c857a8c7e"><path d="M 6.363281 43 L 10 43 L 10 49 L 6.363281 49 Z M 6.363281 43 " clip-rule="nonzero"/></clipPath><clipPath id="f709fc6dad"><path d="M 82 35 L 94.332031 35 L 94.332031 60 L 82 60 Z M 82 35 " clip-rule="nonzero"/></clipPath><clipPath id="7afb2100f2"><path d="M 75 61 L 94.332031 61 L 94.332031 82 L 75 82 Z M 75 61 " clip-rule="nonzero"/></clipPath></defs><g fill="#000000" fill-opacity="1"><g transform="translate(108.499619, 61.476491)"><g><path d="M 15.78125 10.46875 L 13.0625 6.34375 C 13.1875 6.1875 13.347656 5.988281 13.546875 5.75 C 13.742188 5.507812 14.164062 5.054688 14.8125 4.390625 C 15.457031 3.722656 16.082031 3.132812 16.6875 2.625 C 17.289062 2.125 17.992188 1.671875 18.796875 1.265625 C 19.609375 0.867188 20.359375 0.671875 21.046875 0.671875 L 21.046875 0.421875 C 15.160156 -0.703125 10.410156 -3.601562 6.796875 -8.28125 C 3.191406 -12.957031 1.390625 -18.523438 1.390625 -24.984375 C 1.390625 -32.242188 3.804688 -38.363281 8.640625 -43.34375 C 13.484375 -48.320312 19.351562 -50.8125 26.25 -50.8125 C 33.1875 -50.8125 39.050781 -48.320312 43.84375 -43.34375 C 48.644531 -38.363281 51.046875 -32.242188 51.046875 -24.984375 C 51.046875 -19.054688 49.453125 -13.832031 46.265625 -9.3125 C 43.085938 -4.800781 38.894531 -1.757812 33.6875 -0.1875 L 33.6875 0.0625 C 33.925781 0.0625 34.992188 0.25 36.890625 0.625 C 38.785156 1.007812 40.300781 1.203125 41.4375 1.203125 C 42.96875 1.203125 44.359375 0.929688 45.609375 0.390625 C 46.859375 -0.148438 47.722656 -0.679688 48.203125 -1.203125 L 48.9375 -2.0625 L 52.5 5.625 C 52.414062 5.820312 52.28125 6.070312 52.09375 6.375 C 51.914062 6.675781 51.503906 7.210938 50.859375 7.984375 C 50.222656 8.753906 49.507812 9.441406 48.71875 10.046875 C 47.9375 10.648438 46.890625 11.191406 45.578125 11.671875 C 44.265625 12.160156 42.863281 12.40625 41.375 12.40625 C 38.914062 12.40625 35.910156 11.617188 32.359375 10.046875 C 28.804688 8.472656 25.742188 7.6875 23.171875 7.6875 C 21.753906 7.6875 20.429688 7.914062 19.203125 8.375 C 17.972656 8.84375 17.097656 9.316406 16.578125 9.796875 Z M 13.671875 -24.984375 C 13.671875 -23.046875 13.890625 -21.238281 14.328125 -19.5625 C 14.773438 -17.894531 15.472656 -16.375 16.421875 -15 C 17.367188 -13.625 18.675781 -12.539062 20.34375 -11.75 C 22.019531 -10.96875 23.988281 -10.578125 26.25 -10.578125 C 30.476562 -10.578125 33.617188 -11.945312 35.671875 -14.6875 C 37.734375 -17.4375 38.765625 -20.867188 38.765625 -24.984375 C 38.765625 -29.054688 37.71875 -32.472656 35.625 -35.234375 C 33.53125 -37.992188 30.40625 -39.375 26.25 -39.375 C 22.132812 -39.375 19.007812 -37.984375 16.875 -35.203125 C 14.738281 -32.421875 13.671875 -29.015625 13.671875 -24.984375 Z M 13.671875 -24.984375 "/></g></g></g><g fill="#000000" fill-opacity="1"><g transform="translate(160.928462, 61.476491)"><g><path d="M 3.625 -49.90625 L 21.46875 -49.90625 C 26.269531 -49.90625 30.179688 -48.625 33.203125 -46.0625 C 36.234375 -43.5 37.75 -39.835938 37.75 -35.078125 C 37.75 -31.410156 36.828125 -28.335938 34.984375 -25.859375 C 33.148438 -23.378906 30.660156 -21.632812 27.515625 -20.625 L 44.703125 0 L 30.25 0 L 15 -19.71875 L 15 0 L 3.625 0 Z M 15 -27.765625 L 16.328125 -27.765625 C 17.378906 -27.765625 18.265625 -27.785156 18.984375 -27.828125 C 19.710938 -27.867188 20.539062 -28.007812 21.46875 -28.25 C 22.394531 -28.488281 23.140625 -28.828125 23.703125 -29.265625 C 24.273438 -29.710938 24.757812 -30.359375 25.15625 -31.203125 C 25.5625 -32.054688 25.765625 -33.085938 25.765625 -34.296875 C 25.765625 -35.503906 25.5625 -36.53125 25.15625 -37.375 C 24.757812 -38.226562 24.273438 -38.875 23.703125 -39.3125 C 23.140625 -39.757812 22.394531 -40.101562 21.46875 -40.34375 C 20.539062 -40.582031 19.710938 -40.722656 18.984375 -40.765625 C 18.265625 -40.804688 17.378906 -40.828125 16.328125 -40.828125 L 15 -40.828125 Z M 15 -27.765625 "/></g></g></g><g fill="#000000" fill-opacity="1"><g transform="translate(204.226098, 61.476491)"><g/></g></g><g fill="#000000" fill-opacity="1"><g transform="translate(220.734836, 61.476491)"><g><path d="M 44.875 0 L 42.515625 -29.578125 L 42.21875 -29.578125 L 32 -0.296875 L 25.21875 -0.296875 L 15 -29.578125 L 14.703125 -29.578125 L 12.34375 0 L 0.96875 0 L 5.4375 -49.90625 L 17.546875 -49.90625 L 28.609375 -21.109375 L 39.671875 -49.90625 L 51.78125 -49.90625 L 56.25 0 Z M 44.875 0 "/></g></g></g><g fill="#000000" fill-opacity="1"><g transform="translate(277.940931, 61.476491)"><g><path d="M 28.96875 -49.90625 L 49.109375 0 L 36.890625 0 L 33.203125 -9.984375 L 14.21875 -9.984375 L 10.53125 0 L -1.6875 0 L 18.453125 -49.90625 Z M 29.328125 -19.953125 L 23.765625 -34.46875 L 23.65625 -34.46875 L 18.078125 -19.953125 Z M 29.328125 -19.953125 "/></g></g></g><g fill="#000000" fill-opacity="1"><g transform="translate(325.350654, 61.476491)"><g><path d="M 15 -30.96875 L 15 0 L 3.625 0 L 3.625 -49.90625 L 15 -49.90625 L 34.84375 -18.9375 L 34.953125 -18.9375 L 34.953125 -49.90625 L 46.328125 -49.90625 L 46.328125 0 L 34.953125 0 L 15.125 -30.96875 Z M 15 -30.96875 "/></g></g></g><g fill="#000000" fill-opacity="1"><g transform="translate(375.300164, 61.476491)"><g><path d="M 28.96875 -49.90625 L 49.109375 0 L 36.890625 0 L 33.203125 -9.984375 L 14.21875 -9.984375 L 10.53125 0 L -1.6875 0 L 18.453125 -49.90625 Z M 29.328125 -19.953125 L 23.765625 -34.46875 L 23.65625 -34.46875 L 18.078125 -19.953125 Z M 29.328125 -19.953125 "/></g></g></g><g fill="#000000" fill-opacity="1"><g transform="translate(422.709874, 61.476491)"><g><path d="M 48.75 -27.9375 L 48.75 -17.109375 C 47.457031 -11.179688 44.632812 -6.695312 40.28125 -3.65625 C 35.925781 -0.613281 31.066406 0.90625 25.703125 0.90625 C 18.972656 0.90625 13.238281 -1.613281 8.5 -6.65625 C 3.757812 -11.695312 1.390625 -17.785156 1.390625 -24.921875 C 1.390625 -32.179688 3.707031 -38.3125 8.34375 -43.3125 C 12.976562 -48.3125 18.765625 -50.8125 25.703125 -50.8125 C 33.804688 -50.8125 40.21875 -47.96875 44.9375 -42.28125 L 37.5 -34.109375 C 34.84375 -38.390625 31.132812 -40.53125 26.375 -40.53125 C 22.863281 -40.53125 19.867188 -39.003906 17.390625 -35.953125 C 14.910156 -32.910156 13.671875 -29.234375 13.671875 -24.921875 C 13.671875 -20.679688 14.910156 -17.0625 17.390625 -14.0625 C 19.867188 -11.0625 22.863281 -9.5625 26.375 -9.5625 C 29.269531 -9.5625 31.796875 -10.4375 33.953125 -12.1875 C 36.117188 -13.9375 37.203125 -16.265625 37.203125 -19.171875 L 25.703125 -19.171875 L 25.703125 -27.9375 Z M 48.75 -27.9375 "/></g></g></g><g fill="#000000" fill-opacity="1"><g transform="translate(472.840799, 61.476491)"><g><path d="M 32.171875 -49.90625 L 32.171875 -39.921875 L 15 -39.921875 L 15 -30 L 31.453125 -30 L 31.453125 -20.015625 L 15 -20.015625 L 15 -9.984375 L 32.171875 -9.984375 L 32.171875 0 L 3.625 0 L 3.625 -49.90625 Z M 32.171875 -49.90625 "/></g></g></g><g fill="#000000" fill-opacity="1"><g transform="translate(507.914288, 61.476491)"><g><path d="M 3.625 -49.90625 L 21.46875 -49.90625 C 26.269531 -49.90625 30.179688 -48.625 33.203125 -46.0625 C 36.234375 -43.5 37.75 -39.835938 37.75 -35.078125 C 37.75 -31.410156 36.828125 -28.335938 34.984375 -25.859375 C 33.148438 -23.378906 30.660156 -21.632812 27.515625 -20.625 L 44.703125 0 L 30.25 0 L 15 -19.71875 L 15 0 L 3.625 0 Z M 15 -27.765625 L 16.328125 -27.765625 C 17.378906 -27.765625 18.265625 -27.785156 18.984375 -27.828125 C 19.710938 -27.867188 20.539062 -28.007812 21.46875 -28.25 C 22.394531 -28.488281 23.140625 -28.828125 23.703125 -29.265625 C 24.273438 -29.710938 24.757812 -30.359375 25.15625 -31.203125 C 25.5625 -32.054688 25.765625 -33.085938 25.765625 -34.296875 C 25.765625 -35.503906 25.5625 -36.53125 25.15625 -37.375 C 24.757812 -38.226562 24.273438 -38.875 23.703125 -39.3125 C 23.140625 -39.757812 22.394531 -40.101562 21.46875 -40.34375 C 20.539062 -40.582031 19.710938 -40.722656 18.984375 -40.765625 C 18.265625 -40.804688 17.378906 -40.828125 16.328125 -40.828125 L 15 -40.828125 Z M 15 -27.765625 "/></g></g></g><g clip-path="url(#54adc706a1)"><path fill="#2e2d2d" d="M 33.738281 27.46875 L 10.285156 27.46875 L 10.285156 3.925781 L 33.738281 3.925781 Z M 6.375 0.0078125 L 6.375 31.390625 L 37.644531 31.390625 L 37.644531 0.0078125 L 6.375 0.0078125 " fill-opacity="1" fill-rule="nonzero"/></g><path fill="#2e2d2d" d="M 29.792969 7.886719 L 29.792969 23.507812 L 14.226562 23.507812 L 14.226562 7.886719 L 29.792969 7.886719 " fill-opacity="1" fill-rule="nonzero"/><g clip-path="url(#6b34ca54e0)"><path fill="#2e2d2d" d="M 33.738281 78.074219 L 10.285156 78.074219 L 10.285156 54.535156 L 33.738281 54.535156 Z M 6.375 50.609375 L 6.375 81.996094 L 37.644531 81.996094 L 37.644531 50.609375 L 6.375 50.609375 " fill-opacity="1" fill-rule="nonzero"/></g><path fill="#2e2d2d" d="M 29.792969 58.496094 L 29.792969 74.117188 L 14.226562 74.117188 L 14.226562 58.496094 L 29.792969 58.496094 " fill-opacity="1" fill-rule="nonzero"/><g clip-path="url(#52f2d1c5d3)"><path fill="#2e2d2d" d="M 90.410156 27.46875 L 66.960938 27.46875 L 66.960938 3.925781 L 90.410156 3.925781 Z M 63.050781 0.0078125 L 63.050781 31.390625 L 94.320312 31.390625 L 94.320312 0.0078125 L 63.050781 0.0078125 " fill-opacity="1" fill-rule="nonzero"/></g><path fill="#2e2d2d" d="M 86.515625 7.839844 L 86.515625 23.554688 L 70.855469 23.554688 L 70.855469 7.839844 L 86.515625 7.839844 " fill-opacity="1" fill-rule="nonzero"/><g clip-path="url(#a7669a7091)"><path fill="#2e2d2d" d="M 9.503906 34.921875 L 9.503906 40.746094 L 6.375 40.746094 L 6.375 34.921875 L 9.503906 34.921875 " fill-opacity="1" fill-rule="nonzero"/></g><g clip-path="url(#6c857a8c7e)"><path fill="#2e2d2d" d="M 6.375 43.882812 L 9.503906 43.882812 L 9.503906 48.261719 L 6.375 48.261719 L 6.375 43.882812 " fill-opacity="1" fill-rule="nonzero"/></g><path fill="#2e2d2d" d="M 60.3125 0.00390625 L 60.3125 3.144531 L 39.992188 3.144531 L 39.992188 0.00390625 L 60.3125 0.00390625 " fill-opacity="1" fill-rule="nonzero"/><g clip-path="url(#f709fc6dad)"><path fill="#2e2d2d" d="M 94.320312 59.636719 L 82.59375 59.636719 L 82.59375 56.496094 L 91.195312 56.496094 L 91.195312 35.703125 L 94.320312 35.703125 L 94.320312 59.636719 " fill-opacity="1" fill-rule="nonzero"/></g><g clip-path="url(#7afb2100f2)"><path fill="#2e2d2d" d="M 94.320312 82 L 81.03125 82 L 81.03125 72.191406 L 75.167969 72.191406 L 75.167969 69.050781 L 84.160156 69.050781 L 84.160156 78.859375 L 91.195312 78.859375 L 91.195312 61.988281 L 94.320312 61.988281 L 94.320312 82 " fill-opacity="1" fill-rule="nonzero"/></g><path fill="#2e2d2d" d="M 57.578125 82 L 41.160156 82 L 41.160156 78.859375 L 54.453125 78.859375 L 54.453125 73.761719 L 57.578125 73.761719 L 57.578125 82 " fill-opacity="1" fill-rule="nonzero"/><path fill="#2e2d2d" d="M 76.730469 82 L 59.925781 82 L 59.925781 78.859375 L 76.730469 78.859375 L 76.730469 82 " fill-opacity="1" fill-rule="nonzero"/><path fill="#2e2d2d" d="M 55.625 20.015625 L 44.679688 20.015625 L 44.679688 9.027344 L 55.625 9.027344 Z M 41.554688 5.890625 L 41.554688 23.148438 L 58.75 23.148438 L 58.75 5.890625 L 41.554688 5.890625 " fill-opacity="1" fill-rule="nonzero"/><path fill="#2e2d2d" d="M 62.660156 56.496094 L 51.714844 56.496094 L 51.714844 45.515625 L 62.660156 45.515625 Z M 48.589844 42.375 L 48.589844 59.636719 L 65.789062 59.636719 L 65.789062 42.375 L 48.589844 42.375 " fill-opacity="1" fill-rule="nonzero"/><path fill="#2e2d2d" d="M 31 48.257812 L 27.875 48.257812 L 27.875 39.238281 L 13.019531 39.238281 L 13.019531 36.097656 L 31 36.097656 L 31 48.257812 " fill-opacity="1" fill-rule="nonzero"/><path fill="#2e2d2d" d="M 49.761719 39.238281 L 34.519531 39.238281 L 34.519531 36.097656 L 46.632812 36.097656 L 46.632812 32.175781 L 55.625 32.175781 L 55.625 26.683594 L 58.75 26.683594 L 58.75 35.3125 L 49.761719 35.3125 L 49.761719 39.238281 " fill-opacity="1" fill-rule="nonzero"/><path fill="#2e2d2d" d="M 75.558594 43.945312 L 72.429688 43.945312 L 72.429688 41.589844 L 66.960938 41.589844 L 66.960938 38.449219 L 75.558594 38.449219 L 75.558594 43.945312 " fill-opacity="1" fill-rule="nonzero"/><path fill="#2e2d2d" d="M 75.949219 60.027344 L 72.042969 60.027344 L 72.042969 56.105469 L 75.949219 56.105469 Z M 68.914062 52.96875 L 68.914062 63.167969 L 79.078125 63.167969 L 79.078125 52.96875 L 68.914062 52.96875 " fill-opacity="1" fill-rule="nonzero"/><path fill="#2e2d2d" d="M 53.398438 69.054688 L 53.398438 73.761719 L 49.234375 73.761719 L 49.234375 76.371094 L 44.546875 76.371094 L 44.546875 71.667969 L 48.710938 71.667969 L 48.710938 69.054688 L 53.398438 69.054688 " fill-opacity="1" fill-rule="nonzero"/><path fill="#2e2d2d" d="M 90.625 66.542969 L 90.625 72.03125 L 85.15625 72.03125 L 85.15625 66.699219 L 80.773438 66.699219 L 80.773438 61.988281 L 85.464844 61.988281 L 85.464844 66.542969 L 90.625 66.542969 " fill-opacity="1" fill-rule="nonzero"/><path fill="#2e2d2d" d="M 25 45.769531 L 25 50.476562 L 20.3125 50.476562 L 20.3125 46.296875 L 16.148438 46.296875 L 16.148438 41.589844 L 20.835938 41.589844 L 20.835938 45.769531 L 25 45.769531 " fill-opacity="1" fill-rule="nonzero"/><path fill="#2e2d2d" d="M 45.851562 24.71875 L 45.851562 29.429688 L 41.160156 29.429688 L 41.160156 24.71875 L 45.851562 24.71875 " fill-opacity="1" fill-rule="nonzero"/><path fill="#2e2d2d" d="M 64.878906 32.960938 L 64.878906 37.667969 L 60.195312 37.667969 L 60.195312 41.847656 L 55.5 41.847656 L 55.5 37.140625 L 60.183594 37.140625 L 60.183594 32.960938 L 64.878906 32.960938 " fill-opacity="1" fill-rule="nonzero"/><path fill="#2e2d2d" d="M 88.847656 33.613281 L 88.847656 38.320312 L 84.15625 38.320312 L 84.15625 33.613281 L 88.847656 33.613281 " fill-opacity="1" fill-rule="nonzero"/><path fill="#2e2d2d" d="M 88.457031 49.828125 L 70.476562 49.828125 L 70.476562 46.691406 L 85.332031 46.691406 L 85.332031 38.84375 L 88.457031 38.84375 L 88.457031 49.828125 " fill-opacity="1" fill-rule="nonzero"/><path fill="#2e2d2d" d="M 63.050781 63.949219 L 41.160156 63.949219 L 41.160156 67.089844 L 59.925781 67.089844 L 59.925781 70.226562 L 63.050781 70.226562 L 63.050781 63.949219 " fill-opacity="1" fill-rule="nonzero"/><path fill="#2e2d2d" d="M 73.605469 74.9375 L 59.535156 74.9375 L 59.535156 71.796875 L 70.476562 71.796875 L 70.476562 65.128906 L 73.605469 65.128906 L 73.605469 74.9375 " fill-opacity="1" fill-rule="nonzero"/><path fill="#2e2d2d" d="M 80.640625 42.636719 L 77.511719 42.636719 L 77.511719 36.359375 L 70.085938 36.359375 L 70.085938 33.21875 L 80.640625 33.21875 L 80.640625 42.636719 " fill-opacity="1" fill-rule="nonzero"/><path fill="#2e2d2d" d="M 43.507812 61.597656 L 40.382812 61.597656 L 40.382812 45.511719 L 35.691406 45.511719 L 35.691406 42.375 L 43.507812 42.375 L 43.507812 61.597656 " fill-opacity="1" fill-rule="nonzero"/><path fill="#2e2d2d" d="M 59.925781 48.257812 L 59.925781 53.75 L 54.453125 53.75 L 54.453125 48.257812 L 59.925781 48.257812 " fill-opacity="1" fill-rule="nonzero"/><path fill="#2e2d2d" d="M 52.640625 11.695312 L 52.640625 17.1875 L 47.167969 17.1875 L 47.167969 11.695312 L 52.640625 11.695312 " fill-opacity="1" fill-rule="nonzero"/></svg>